<svg width="30" height="30" viewBox="0 0 30 30" xmlns="http://www.w3.org/2000/svg">
<path d="M6.54512 21.3816H9.16337V24.6547C9.16337 24.814 9.21432 24.9444 9.31683 25.0463C9.41907 25.1488 9.54976 25.2001 9.70897 25.2001H11.3554C11.5031 25.2001 11.631 25.1488 11.7389 25.0463C11.8469 24.9444 11.9007 24.8139 11.9007 24.6547V21.3816H20.5087C20.6675 21.3816 20.7983 21.3309 20.9008 21.2284C21.0033 21.1259 21.0542 20.9955 21.0542 20.8362V19.8543C21.0542 19.696 21.0033 19.5647 20.9008 19.4628C20.7986 19.3602 20.6675 19.3089 20.5087 19.3089H11.9005V16.0975H17.6959C19.9685 16.0975 21.6776 14.9221 22.1995 14.3999C22.7214 13.8776 23.9733 12.0431 23.9733 9.84907C23.9733 7.65648 23.1532 5.48545 22.1995 4.79945C21.2459 4.11344 19.9685 3.6001 17.6959 3.6001H9.70869C9.54943 3.6001 9.41902 3.65133 9.31655 3.75328C9.21432 3.8558 9.16308 3.98706 9.16308 4.14542V13.6673H6.54512C6.38591 13.6673 6.25545 13.7211 6.15298 13.8291C6.05079 13.937 5.99951 14.0649 5.99951 14.2125V15.5521C5.99951 15.7113 6.05046 15.8418 6.15298 15.9442C6.2555 16.0468 6.38563 16.0974 6.54512 16.0974H9.16337V19.3089H6.54512C6.38591 19.3089 6.25545 19.3602 6.15298 19.4627C6.05079 19.5646 5.99951 19.6957 5.99951 19.8542V20.8362C5.99951 20.9954 6.05046 21.1259 6.15298 21.2283C6.25545 21.3309 6.38586 21.3816 6.54512 21.3816ZM11.9005 6.03115H17.355C18.5594 6.03115 19.5308 6.38329 20.2697 7.08782C21.0082 7.7924 21.3776 8.71316 21.3776 9.84907C21.3776 10.9855 21.0082 11.9066 20.2697 12.6103C19.5308 13.3155 18.5594 13.6676 17.355 13.6676H11.9005V6.03115Z" />
</svg>
