<svg style="display: none;" aria-hidden="true" xmlns="http://www.w3.org/2000/svg" xmlns:xlink="http://www.w3.org/1999/xlink"><symbol viewBox="0 0 29 26" fill="none" id="buy"><path clip-rule="evenodd" d="M7.82413 22.9043C8.43954 22.9043 8.93975 23.4045 8.93975 24.0199 8.93975 24.6353 8.43954 25.1341 7.82413 25.1341 7.20871 25.1341 6.70996 24.6353 6.70996 24.0199 6.70996 23.4045 7.20871 22.9043 7.82413 22.9043zM13.0556 22.9043C13.671 22.9043 14.1712 23.4045 14.1712 24.0199 14.1712 24.6353 13.671 25.1341 13.0556 25.1341 12.4401 25.1341 11.9399 24.6353 11.9399 24.0199 11.9399 23.4045 12.4401 22.9043 13.0556 22.9043z" stroke="#FECB4D" stroke-linecap="round" stroke-linejoin="round"/><path d="M1.01025.739258L4.04359 1.26426 5.44796 17.9957C5.56171 19.3593 6.70067 20.4063 8.06859 20.4063H23.9819C25.2886 20.4063 26.3969 19.4468 26.585 18.1518L27.969 8.58801C28.1396 7.40822 27.2253 6.35238 26.0338 6.35238H4.53067M17.5996 11.7419H21.6436" stroke="#FECB4D" stroke-linecap="round" stroke-linejoin="round"/></symbol><symbol viewBox="0 0 12 12" fill="none" id="remove"><path d="M11.5.5L.5 11.5M.5.5L11.5 11.5" stroke="#000" stroke-opacity=".8" stroke-linecap="round" stroke-linejoin="round"/></symbol><symbol viewBox="0 0 30 30" id="rouble"><path d="M6.54512 21.3816H9.16337V24.6547C9.16337 24.814 9.21432 24.9444 9.31683 25.0463C9.41907 25.1488 9.54976 25.2001 9.70897 25.2001H11.3554C11.5031 25.2001 11.631 25.1488 11.7389 25.0463C11.8469 24.9444 11.9007 24.8139 11.9007 24.6547V21.3816H20.5087C20.6675 21.3816 20.7983 21.3309 20.9008 21.2284C21.0033 21.1259 21.0542 20.9955 21.0542 20.8362V19.8543C21.0542 19.696 21.0033 19.5647 20.9008 19.4628C20.7986 19.3602 20.6675 19.3089 20.5087 19.3089H11.9005V16.0975H17.6959C19.9685 16.0975 21.6776 14.9221 22.1995 14.3999C22.7214 13.8776 23.9733 12.0431 23.9733 9.84907C23.9733 7.65648 23.1532 5.48545 22.1995 4.79945C21.2459 4.11344 19.9685 3.6001 17.6959 3.6001H9.70869C9.54943 3.6001 9.41902 3.65133 9.31655 3.75328C9.21432 3.8558 9.16308 3.98706 9.16308 4.14542V13.6673H6.54512C6.38591 13.6673 6.25545 13.7211 6.15298 13.8291C6.05079 13.937 5.99951 14.0649 5.99951 14.2125V15.5521C5.99951 15.7113 6.05046 15.8418 6.15298 15.9442C6.2555 16.0468 6.38563 16.0974 6.54512 16.0974H9.16337V19.3089H6.54512C6.38591 19.3089 6.25545 19.3602 6.15298 19.4627C6.05079 19.5646 5.99951 19.6957 5.99951 19.8542V20.8362C5.99951 20.9954 6.05046 21.1259 6.15298 21.2283C6.25545 21.3309 6.38586 21.3816 6.54512 21.3816ZM11.9005 6.03115H17.355C18.5594 6.03115 19.5308 6.38329 20.2697 7.08782C21.0082 7.7924 21.3776 8.71316 21.3776 9.84907C21.3776 10.9855 21.0082 11.9066 20.2697 12.6103C19.5308 13.3155 18.5594 13.6676 17.355 13.6676H11.9005V6.03115Z"/></symbol><symbol viewBox="0 0 16 9" fill="none" id="select"><path d="M15.1636 8.69531L7.67389 1.59094L0.850762 8.69531"/></symbol><symbol viewBox="0 0 21 19" fill="none" id="star"><path d="M9.54894 0.927049C9.8483 0.0057385 11.1517 0.0057404 11.4511 0.927051L13.0819 5.9463C13.2158 6.35833 13.5997 6.63729 14.033 6.63729H19.3105C20.2792 6.63729 20.682 7.8769 19.8983 8.4463L15.6287 11.5484C15.2782 11.803 15.1315 12.2544 15.2654 12.6664L16.8963 17.6857C17.1956 18.607 16.1411 19.3731 15.3574 18.8037L11.0878 15.7016C10.7373 15.447 10.2627 15.447 9.91221 15.7016L5.64258 18.8037C4.85887 19.3731 3.80439 18.607 4.10374 17.6857L5.7346 12.6664C5.86847 12.2544 5.72181 11.803 5.37132 11.5484L1.10169 8.4463C0.317977 7.8769 0.720754 6.63729 1.68948 6.63729H6.96703C7.40026 6.63729 7.78421 6.35833 7.91809 5.9463L9.54894 0.927049Z" fill="#FFEB6D"/></symbol></svg>