<svg width="29" height="26" viewBox="0 0 29 26" fill="none" xmlns="http://www.w3.org/2000/svg">
<path fill-rule="evenodd" clip-rule="evenodd" d="M7.82413 22.9048C8.43954 22.9048 8.93975 23.405 8.93975 24.0204C8.93975 24.6358 8.43954 25.1346 7.82413 25.1346C7.20871 25.1346 6.70996 24.6358 6.70996 24.0204C6.70996 23.405 7.20871 22.9048 7.82413 22.9048Z" stroke="" stroke-linecap="round" stroke-linejoin="round"/>
<path fill-rule="evenodd" clip-rule="evenodd" d="M13.0556 22.9048C13.671 22.9048 14.1712 23.405 14.1712 24.0204C14.1712 24.6358 13.671 25.1346 13.0556 25.1346C12.4401 25.1346 11.9399 24.6358 11.9399 24.0204C11.9399 23.405 12.4401 22.9048 13.0556 22.9048Z" stroke="" stroke-linecap="round" stroke-linejoin="round"/>
<path d="M1.01025 0.739746L4.04359 1.26475L5.44796 17.9962C5.56171 19.3597 6.70067 20.4068 8.06859 20.4068H23.9819C25.2886 20.4068 26.3969 19.4472 26.585 18.1522L27.969 8.5885C28.1396 7.4087 27.2253 6.35287 26.0338 6.35287H4.53067" stroke="" stroke-linecap="round" stroke-linejoin="round"/>
<path d="M17.5996 11.7428H21.6436" stroke="" stroke-linecap="round" stroke-linejoin="round"/>
</svg>
