<svg width="39" height="39" viewBox="0 0 39 39" fill="none" xmlns="http://www.w3.org/2000/svg">
<circle cx="19.5" cy="19.5" r="19.5" fill="#FECB4D"/>
<path fill-rule="evenodd" clip-rule="evenodd" d="M11.4903 11.3725C11.8067 10.8488 13.5495 8.94376 14.7932 9.00127C15.165 9.03208 15.4936 9.25699 15.7607 9.51784C16.3738 10.1166 18.129 12.381 18.2286 12.8575C18.471 14.0262 17.0783 14.6999 17.5045 15.8778C18.5911 18.5366 20.4634 20.4088 23.1233 21.4943C24.3003 21.9205 24.974 20.5279 26.1428 20.7713C26.6183 20.8709 28.8839 22.626 29.4826 23.2391C29.7425 23.5051 29.9684 23.8347 29.9992 24.2065C30.0454 25.5159 28.0222 27.2833 27.6278 27.5092C26.6974 28.1747 25.4834 28.1634 24.0035 27.4753C19.8739 25.7572 13.2743 19.2822 11.5242 14.9967C10.8546 13.5251 10.8084 12.303 11.4903 11.3725Z" stroke="white" stroke-linecap="round" stroke-linejoin="round"/>
</svg>
