<svg width="382" height="315" viewBox="0 0 382 315" fill="none" xmlns="http://www.w3.org/2000/svg">
<path d="M378.54 268.42L358.82 207.45L183.07 256.6L182.39 266.62L189.35 265.4L188.51 270.43L196.54 271.18L199.01 260.49L222.05 255.36L226.16 290.25L229.5 291.27L231.25 293.09L236.92 250.89L278.6 240.16L284.53 237.93L289.46 267.24L294.46 267.08L298.41 233.94L346.95 218.4L376.58 269.49L378.54 268.42Z" fill="#8E2619"/>
<path d="M73.4 79C75.78 90.94 144.7 213.82 144.7 213.82C150.325 216.855 156.512 218.703 162.88 219.25C164.535 219.208 166.181 218.99 167.79 218.6C192.43 213.6 290.28 181.94 295.58 176.17C301.39 169.84 299.98 156.88 299.98 156.88C299.98 156.88 254.1 3.25004 232.98 0.880039C211.86 -1.48996 112.93 31.7 102.12 38.05C98.3537 40.4377 94.8684 43.2421 91.73 46.41C81.88 56 71.68 70.32 73.4 79Z" fill="#BAAB24"/>
<g style="mix-blend-mode:screen" opacity="0.55">
<path d="M88.8192 60.48C92.4992 68.09 146.729 184.48 167.819 218.57C192.459 213.57 290.309 181.91 295.609 176.14C301.419 169.81 300.009 156.85 300.009 156.85C300.009 156.85 254.129 3.22003 233.009 0.850028C211.889 -1.51997 112.929 31.7 102.119 38.05C98.3529 40.4377 94.8676 43.2421 91.7292 46.41C88.9992 52.23 87.4092 57.55 88.8192 60.48Z" fill="#CABF27"/>
</g>
<path d="M115.16 169.25C115.39 174.99 139.56 213.25 161.67 244.25C184.3 276 196.53 254 228 246.51C228.5 246.38 229 246.27 229.54 246.15H229.72C262.52 239.15 377.45 203.46 380.29 198.37C383.13 193.28 380.43 171.37 375.06 159.52C374.172 157.461 372.926 155.575 371.38 153.95C370.071 152.509 368.383 151.463 366.509 150.933C364.635 150.403 362.651 150.409 360.78 150.95C360.78 150.95 357.51 131.95 354.69 117.79C354.49 116.79 354.29 115.79 354.09 114.89C352.93 109.17 351.9 104.68 351.28 103.27C350.736 102.047 350.065 100.884 349.28 99.8C347.974 97.9083 346.232 96.3591 344.2 95.2834C342.169 94.2077 339.908 93.6371 337.61 93.62C336.724 93.5956 335.837 93.6491 334.96 93.78C333.39 94 330.73 94.6 327.38 95.42C311.5 99.34 280.38 108.51 280.38 108.51L289.11 163.26L217 191.49C217 191.49 210.55 145.67 194.4 141.18C178.25 136.69 117.13 165.63 115.23 168.7C115.151 168.872 115.127 169.064 115.16 169.25Z" fill="#CABF27"/>
<g style="mix-blend-mode:multiply">
<path d="M280.439 108.44L289.169 163.19L335.899 153.71C335.899 153.71 317.449 108.27 319.229 101.21C319.839 98.76 323.229 96.83 327.419 95.35C311.539 99.27 280.439 108.44 280.439 108.44Z" fill="#CABF27"/>
</g>
<g style="mix-blend-mode:multiply">
<path d="M228.05 245.27C228.05 245.68 228.05 246.09 228.05 246.48C196.53 254 184.3 276 161.67 244.27C139.56 213.27 115.39 174.99 115.16 169.27C125.58 164.9 162.54 149.78 167.79 153.05C173.91 156.86 184.14 195.55 187.3 200.45C190.46 205.35 205.3 197.88 209.3 199.76C211.38 200.76 214.8 201.38 217.83 204.26L228.05 245.27Z" fill="#CABF27"/>
</g>
<g style="mix-blend-mode:screen" opacity="0.55">
<path d="M217.84 204.24C218.03 202.53 218.21 201.24 218.31 200.45C219.12 194.45 227.15 195.17 272.62 176.87C310.51 161.61 356.99 155.52 371.42 153.87C372.966 155.495 374.211 157.381 375.1 159.44C380.47 171.27 383.17 193.2 380.33 198.29C377.49 203.38 262.56 239.03 229.76 246.07H229.58C229.053 245.818 228.542 245.534 228.05 245.22L217.84 204.24Z" fill="#CABF27"/>
</g>
<path d="M298.46 266.95L315.51 268.41L315.6 271.14L297.25 271.72L299.55 269.28L298.46 266.95Z" fill="#8E2619"/>
<path d="M231.249 293.09L242.149 306.75L239.749 308.83L227.279 294.22L231.249 293.09Z" fill="#8E2619"/>
<path d="M180.03 275.42L157.75 278.41L159.23 280L183.8 279.59L180.03 275.42Z" fill="#8E2619"/>
<path d="M191.61 273.34L167.79 279.45L167.87 282.09L193.84 280.63L191.61 273.34Z" fill="#8E2619"/>
<path d="M182.88 282.15L178.54 282.28L183.98 285.18L191.89 283.39L182.88 282.15Z" fill="#8E2619"/>
<path d="M140.199 39.84C140.199 39.84 130.389 46.16 133.579 52.06C136.769 57.96 144.999 65.7 144.999 65.7C144.999 65.7 131.719 57.12 128.849 61.21C125.979 65.3 127.199 72.27 127.199 72.27C127.199 72.27 126.659 55.27 121.819 60.43C119.335 62.9662 117.08 65.7169 115.079 68.65L112.259 78.32C112.259 78.32 114.819 68.13 111.739 61.99C108.659 55.85 99.8594 62.13 99.8594 62.13C99.8594 62.13 122.599 53.41 129.369 46.19C136.139 38.97 140.199 39.84 140.199 39.84Z" fill="#CABF27"/>
<path d="M116.679 55.59C116.679 55.59 115.899 60.28 119.379 58.68C119.517 58.6307 119.651 58.5706 119.78 58.5C123.71 56.37 130.709 56.15 128.609 53.22C126.509 50.29 127.489 49.22 127.489 49.22C127.489 49.22 128.23 41.2201 124.27 42.3201C123.414 42.5413 122.616 42.9437 121.929 43.5C120.319 44.88 120.279 46.8201 119.929 47.9501C119.698 49.2409 119.739 50.5659 120.049 51.84C119.722 51.4304 119.334 51.073 118.9 50.78C118.529 50.5084 118.086 50.3554 117.627 50.3411C117.168 50.3268 116.716 50.452 116.33 50.7001C115.827 51.0391 115.404 51.4825 115.09 52C112.69 55.72 116.679 55.59 116.679 55.59Z" fill="#F7EDA9"/>
<path d="M118.91 50.81L120.62 53.47C120.542 50.109 120.984 46.756 121.93 43.53C120.32 44.91 120.28 46.85 119.93 47.98C119.699 49.2709 119.74 50.5959 120.05 51.87C119.726 51.4612 119.341 51.1038 118.91 50.81Z" fill="#E2D78D"/>
<path d="M116.68 55.59C116.68 55.59 115.9 60.28 119.38 58.68C118.906 58.5607 118.486 58.288 118.184 57.9045C117.882 57.521 117.715 57.0482 117.71 56.56C117.62 53.56 115.71 55.63 115.62 53.63C115.662 52.6279 115.907 51.6447 116.34 50.74C115.838 51.0791 115.415 51.5225 115.1 52.04C112.69 55.72 116.68 55.59 116.68 55.59Z" fill="#E2D78D"/>
<path d="M256.289 104.2C256.289 104.2 255.009 55.61 249.589 46.58C249.589 46.58 253.709 54.26 247.089 66.48C240.469 78.7 229.449 55.79 229.449 55.79C229.449 55.79 240.289 72.7 240.539 80.69L240.789 88.69C240.789 88.69 241.179 78.6 242.729 75.58C244.279 72.56 247.069 71.82 247.869 78.13C248.377 82.7795 248.637 87.4528 248.649 92.13C248.649 92.13 249.649 82.45 251.649 82.38C253.649 82.31 256.289 104.2 256.289 104.2Z" fill="#CABF27"/>
<path opacity="0.42" d="M110.69 308.91L114.23 308.51C117.41 304.99 123.5 298.78 126.4 299.41C129.64 300.12 131.07 304.76 131.5 306.55L133.07 306.37C133.07 306.37 116.57 261.37 122.76 241.82C127.35 227.36 151.09 189.63 163.11 171C156.11 181 145.11 194.93 136.02 198.22C121.61 203.43 128.33 165.12 128.55 163.84C127.55 165.84 74.2597 274.19 41.1197 292.1C8.71969 309.6 0.889688 314.1 0.429688 314.39C2.04969 313.74 96.6997 275.39 113.3 281.81C130.05 288.29 110.69 308.91 110.69 308.91ZM66.1097 281.17C72.8497 283.09 73.5997 284.5 69.8097 286.4C66.0197 288.3 56.1797 293.63 54.1197 291.69C52.0597 289.75 59.8297 282.51 59.8297 282.51C59.8297 282.51 59.3697 279.24 66.1097 281.17ZM110 223.89C110.13 227.89 110.13 227.89 102.48 239.14C94.8297 250.39 94.8297 250.38 91.6197 259.49C88.4097 268.6 92.8397 270.78 82.7997 275.49C72.7597 280.2 68.6997 278.27 69.5397 273.24C70.3797 268.21 74.3997 263.53 78.1297 257.18C81.8597 250.83 96.9097 221.35 104.85 219.1C104.85 219.05 109.87 219.89 110 223.89ZM124.27 200.43C127.27 201.33 128.39 204.3 132.36 203.17C136.33 202.04 141.19 197.89 140.29 200.92C140.29 200.92 136.06 209.92 132.46 214.62C128.86 219.32 127.99 223.32 123.8 217.45C119.61 211.58 121.24 199.52 124.27 200.43ZM117 192.65C119.81 186.56 121.78 179.77 124.25 181.56C124.25 181.56 126.99 192.34 126.06 194.37C125.13 196.4 121.25 200.52 118.28 201.62C115.31 202.72 114.21 198.74 117 192.65ZM118.42 272.95C116.59 274.71 113.23 275.41 113.35 273.11C113.47 270.81 118.26 268.11 118.26 268.11C118.26 268.11 120.26 271.19 118.44 273L118.42 272.95Z" fill="white"/>
<path d="M337.649 93.55C339.039 97.55 340.059 101.55 339.899 104.32L339.419 112.32C339.419 112.32 340.719 102.32 342.539 99.4501C344.359 96.5801 347.209 96.1001 347.429 102.45C347.51 107.123 347.34 111.796 346.919 116.45C346.919 116.45 348.759 106.89 350.759 107.01C352.759 107.13 353.419 129.22 353.419 129.22C353.419 129.22 353.819 123.13 354.119 114.85C352.959 109.13 351.929 104.64 351.309 103.23C350.765 102.007 350.095 100.844 349.309 99.7601C348.008 97.8643 346.269 96.31 344.239 95.229C342.209 94.148 339.949 93.5721 337.649 93.55Z" fill="#BCAD24"/>
<path d="M341.19 94.13C341.466 94.4248 341.809 94.6479 342.19 94.78C344.33 95.62 346.68 97.83 347.96 97.84C348.6 99.67 349.38 101.58 349.38 101.58C349.59 101.718 349.811 101.838 350.04 101.94C350.35 102.141 350.704 102.264 351.071 102.299C351.439 102.334 351.809 102.28 352.151 102.142C352.494 102.003 352.798 101.785 353.038 101.504C353.278 101.224 353.447 100.89 353.53 100.53C354.48 97.95 352.25 97.96 351.32 98.06C352.26 97.89 354.53 97.25 353.63 95.18C353.32 94.3704 352.885 93.6145 352.34 92.94C353.18 91.94 353.74 90.76 352.56 89.94C350.23 88.38 348.72 89.74 347.72 90.19C346.937 90.6427 346.256 91.2521 345.72 91.98C345.72 91.98 346.42 89.11 343.44 89.47C340.46 89.83 342.29 91.86 342.29 91.86C342.29 91.86 340.37 93.09 341.19 94.13Z" fill="#F7EDA9"/>
<path d="M341.189 94.13C341.465 94.4248 341.808 94.6479 342.189 94.78C344.329 95.62 346.679 97.83 347.959 97.84C348.599 99.67 349.379 101.58 349.379 101.58C349.589 101.718 349.81 101.838 350.039 101.94C350.439 101.61 350.659 100.85 351.179 100.41C352.179 99.6 350.109 98.23 350.109 98.23C350.563 97.2826 350.866 96.2706 351.009 95.23C351.087 94.4384 350.927 93.6417 350.549 92.9417C350.171 92.2416 349.594 91.6701 348.889 91.3C346.889 90.36 345.299 94.11 345.299 94.11C345.299 94.11 344.979 94.42 345.249 93.34C345.519 92.26 343.919 92.46 342.599 92.39C341.799 92.32 341.379 93.35 341.189 94.13Z" fill="#E2D78D"/>
<path d="M233.3 0.609985C233.3 0.609985 220.92 10.86 221.89 18.88C222.86 26.9 234.28 31.59 234.28 31.59C234.28 31.59 219.85 22.67 214.91 25.71C209.97 28.75 208.63 32.41 208.63 32.41C208.63 32.41 216.25 22.78 216.12 18.41C215.99 14.04 207.97 11.41 207.97 11.41C207.97 11.41 219.65 16.13 218.97 17.59C218.29 19.05 221.8 9.60999 233.3 0.609985Z" fill="#CABF27"/>
<path d="M219.91 21.09C220.067 21.3277 220.259 21.5402 220.48 21.72C221.73 22.72 222.48 20.35 222.48 20.35C222.48 20.35 224.68 21.56 224.37 18.82C224.38 18.4988 224.301 18.1811 224.142 17.9017C223.983 17.6222 223.751 17.3919 223.47 17.2359C223.189 17.08 222.871 17.0044 222.549 17.0174C222.228 17.0305 221.917 17.1317 221.65 17.31C222.186 16.6851 222.587 15.9567 222.83 15.17C223.01 14.17 223.91 12.55 222.01 10.79C220.51 9.39999 219.01 12.04 218.47 13.2C218.33 13.52 218.25 13.73 218.25 13.73C218.25 13.73 218.5 14.58 216.49 15.63C214.48 16.68 218.32 18.79 219.91 21.09Z" fill="#F7EDA9"/>
<path d="M219.91 21.09C220.067 21.3278 220.259 21.5402 220.48 21.72C221.1 21.35 221.96 20.66 221.26 20C220.26 19 221.98 14.57 220.52 14.32C219.52 14.15 219.19 13.16 218.46 13.2C218.32 13.52 218.24 13.73 218.24 13.73C218.24 13.73 218.49 14.58 216.48 15.63C214.47 16.68 218.32 18.79 219.91 21.09Z" fill="#E2D78D"/>
</svg>
