<svg width="70" height="70" fill="none" xmlns="http://www.w3.org/2000/svg"><path d="M13.3 57.78c-.023 1.727 1.149 5.335 6.02 5.95.887.14 3.123-.097 4.97-2.17l3.99-5.81L35 46.02l7.56-10.99 5.81-8.47 7.49-10.85c.864-1.563 1.807-5.333-1.33-7.91-3.135-2.575-6.44-1.26-7.7-.28l-.7.56-.35.35-2.59 3.71L35 24.04l-9.24 13.44V12.42c.094-2.053-1.75-6.09-6.16-6.09-4.76 0-6.346 4.06-6.3 6.09v45.36z" fill="#FECB4D"/><path d="M35.001 46.02l5.67 8.26 4.9 7.07c1.423 1.773 5.362 4.284 9.73.14.84-1.026 2.198-3.738.91-6.37-.117-.256-.392-.826-.56-1.05-.168-.224-2.357-3.453-3.43-5.04l-4.55-6.58-5.11-7.42-7.56 10.99z" fill="#000"/></svg>